<?xml version="1.0" encoding="utf-8"?>
<!-- Generator: Adobe Illustrator 25.3.1, SVG Export Plug-In . SVG Version: 6.00 Build 0)  -->
<svg version="1.1"
	 id="Capa_1" xmlns:cc="http://creativecommons.org/ns#" xmlns:dc="http://purl.org/dc/elements/1.1/" xmlns:rdf="http://www.w3.org/1999/02/22-rdf-syntax-ns#"
	 xmlns="http://www.w3.org/2000/svg" xmlns:xlink="http://www.w3.org/1999/xlink" x="0px" y="0px" viewBox="0 0 26 26"
	 style="enable-background:new 0 0 26 26;" xml:space="preserve">
<style type="text/css">
	.st0{fill:#FFFFFF;stroke:#000000;stroke-linecap:round;stroke-linejoin:round;}
	.st1{fill:#FFFFFF;stroke:#000000;stroke-linecap:square;stroke-linejoin:round;}
	.st2{fill:none;stroke:#000000;stroke-width:0.75;stroke-linecap:round;stroke-miterlimit:10;}
</style>
<path class="st0" d="M10.1,8.9c-0.8,0.8-3.7,1.1-5.1-0.2S3.9,4.8,4.7,4"/>
<path class="st0" d="M10.2,8.7c0,0-0.3-1.8-1.9-3.2C6.6,4,4.9,3.9,4.9,3.9S5.2,8.1,10.2,8.7c3.2,2.9,7.2,6.4,9.4,8.2l-1,1.3L8.8,9.6
	"/>
<path class="st0" d="M14.9,16.3c0-3.4,0-8.7,0-8.7h-2.8v8.7"/>
<path class="st0" d="M9.2,18.9c3.4,0,8.7,0,8.7,0v-2.8H9.2"/>
<path class="st1" d="M21.7,18.8c0,1.7-1.4,3-3,3s-3-1.4-3-3s1.4-3,3-3S21.7,17.2,21.7,18.8z"/>
<path d="M19.4,18.8c0,0.4-0.4,0.8-0.8,0.8c-0.4,0-0.8-0.4-0.8-0.8c0-0.4,0.4-0.8,0.8-0.8C19.1,18,19.4,18.4,19.4,18.8z"/>
<path class="st1" d="M12,18.8c0,1.7-1.4,3-3,3s-3-1.4-3-3s1.4-3,3-3S12,17.2,12,18.8z"/>
<path d="M9.8,18.8c0,0.4-0.4,0.8-0.8,0.8c-0.4,0-0.8-0.4-0.8-0.8C8.1,18.4,8.5,18,9,18C9.4,18,9.8,18.4,9.8,18.8z"/>
<line class="st2" x1="9" y1="17.5" x2="9" y2="20.1"/>
<line class="st2" x1="10.3" y1="18.8" x2="7.6" y2="18.8"/>
<line class="st2" x1="19.1" y1="17.6" x2="18.2" y2="20.1"/>
<line class="st2" x1="19.9" y1="19.3" x2="17.4" y2="18.4"/>
</svg>
