<?xml version="1.0" encoding="utf-8"?>
<!-- Generator: Adobe Illustrator 25.3.1, SVG Export Plug-In . SVG Version: 6.00 Build 0)  -->
<svg version="1.1" id="Capa_1" xmlns="http://www.w3.org/2000/svg" xmlns:xlink="http://www.w3.org/1999/xlink" x="0px" y="0px"
	 viewBox="0 0 45 45" style="enable-background:new 0 0 45 45;" xml:space="preserve">
<style type="text/css">
	.st0{fill-rule:evenodd;clip-rule:evenodd;fill:#FFFFFF;stroke:#000000;stroke-width:1.5;stroke-linejoin:round;}
	.st1{fill:none;stroke:#000000;stroke-width:1.5;stroke-linecap:round;}
</style>
<g>
	<g>
		<path class="st0" d="M9,36c3.4-1,10.1,0.4,13.5-2c3.4,2.4,10.1,1,13.5,2c0,0,1.7,0.5,3,2c-0.7,1-1.7,1-3,0.5
			c-3.4-1-10.1,0.5-13.5-1c-3.4,1.5-10.1,0-13.5,1C7.7,39,6.7,39,6,38C7.3,36.5,9,36,9,36z"/>
		<path class="st0" d="M12.5,32.7c0.6,1.7,9.4,6.6,10,6.6c0.5,0,10-4.2,10-6.6c0-1.9,0-2.7,0-2.7c0-3.3,0-5.6,0-5.6
			c0-8.5-1.9-12.6-5.5-16.3c-1.3-1.3-2.3-1.3-4.4-1.3c-1.8,0-3.4-0.1-4.6,1.3c-3.8,4.4-5.3,9.5-5.3,15.5c0,0-0.2,3.2-0.2,6.5
			C12.5,30,12.5,30.7,12.5,32.7z"/>
	</g>
	<path class="st1" d="M15.5,22.5h5.1 M24.5,22.5h5.1 M12.5,30h20 M21.4,17.4 M21.4,10.7 M19.2,14"/>
</g>
<polyline class="st1" points="22.9,10.7 22.5,14 23,17.4 "/>
<polyline class="st1" points="22,17.4 22.5,14 22.2,10.7 "/>
<line class="st1" x1="22.5" y1="14" x2="19.2" y2="14.6"/>
<line class="st1" x1="25.8" y1="14.6" x2="22.5" y2="14"/>
<line class="st1" x1="22.5" y1="14" x2="25.8" y2="13.5"/>
<line class="st1" x1="19.2" y1="13.5" x2="22.5" y2="14"/>
<line class="st1" x1="22.5" y1="19.9" x2="22.5" y2="36.5"/>
</svg>
